General
Count                            : 279
Count of stream of this kind     : 1
Kind of stream                   : General
Kind of stream                   : General
Stream identifier                : 0
Count of video streams           : 1
Count of audio streams           : 1
Video_Format_List                : MPEG-4 Visual
Video_Format_WithHint_List       : MPEG-4 Visual
Codecs Video                     : MPEG-4 Visual
Video_Language_List              : English
Audio_Format_List                : AAC
Audio_Format_WithHint_List       : AAC
Audio codecs                     : AAC LC
Audio_Language_List              : English
Complete name                    : _MP4.mp4
File name                        : _MP4.mp4
File extension                   : mp4
Format                           : MPEG-4
Format                           : MPEG-4
Format/Extensions usually used   : mp4 m4v m4a m4b m4p 3gpp 3gp 3gpp2 3g2 k3g jpm jpx mqv ismv isma f4v
Commercial name                  : MPEG-4
Format profile                   : Base Media / Version 2
Internet media type              : video/mp4
Codec ID                         : mp42
Codec ID/Url                     : http://www.apple.com/quicktime/download/standalone.html
Codec                            : MPEG-4
Codec                            : MPEG-4
Codec/Extensions usually used    : mp4 m4v m4a m4b m4p 3gpp 3gp 3gpp2 3g2 k3g jpm jpx mqv ismv isma f4v
File size                        : 246002
File size                        : 240 KiB
File size                        : 240 KiB
File size                        : 240 KiB
File size                        : 240 KiB
File size                        : 240.2 KiB
Duration                         : 4967
Duration                         : 4s 967ms
Duration                         : 4s 967ms
Duration                         : 4s 967ms
Duration                         : 00:00:04.967
Overall bit rate                 : 396218
Overall bit rate                 : 396 Kbps
Stream size                      : 3506
Stream size                      : 3.42 KiB (1%)
Stream size                      : 3 KiB
Stream size                      : 3.4 KiB
Stream size                      : 3.42 KiB
Stream size                      : 3.424 KiB
Stream size                      : 3.42 KiB (1%)
Proportion of this stream        : 0.01425
HeaderSize                       : 3309
DataSize                         : 242693
FooterSize                       : 0
IsStreamable                     : Yes
Encoded date                     : UTC 2005-10-28 17:46:46
Tagged date                      : UTC 2005-10-28 17:46:46
File creation date               : UTC 2011-11-28 08:45:32.784
File creation date (local)       : 2011-11-28 08:45:32.784
File last modification date      : UTC 2010-07-20 17:00:30.217
File last modification date (loc : 2010-07-20 17:00:30.217
Xtra                             : WM/MediaClassPrimaryID

Video
Count                            : 200
Count of stream of this kind     : 1
Kind of stream                   : Video
Kind of stream                   : Video
Stream identifier                : 0
ID                               : 2
ID                               : 2
Format                           : MPEG-4 Visual
Commercial name                  : MPEG-4 Visual
Internet media type              : video/MP4V-ES
Codec ID                         : 20
Codec                            : MPEG-4V
Codec                            : MPEG-4 Visual
Codec/Family                     : MPEG-4V
Codec/CC                         : 20
Duration                         : 4967
Duration                         : 4s 967ms
Duration                         : 4s 967ms
Duration                         : 4s 967ms
Duration                         : 00:00:04.967
Bit rate mode                    : Constant
Bit rate                         : 341948
Bit rate                         : 342 Kbps
Nominal bit rate                 : 512000
Nominal bit rate                 : 512 Kbps
Width                            : 190
Width                            : 190 pixels
Height                           : 240
Height                           : 240 pixels
Pixel aspect ratio               : 1.000
Display aspect ratio             : 0.792
Display aspect ratio             : 0.792
Rotation                         : 0.000
Frame rate mode                  : CFR
Frame rate mode                  : Constant
Frame rate                       : 30.000
Frame rate                       : 30.000 fps
Frame count                      : 149
Compression mode                 : Lossy
Compression mode                 : Lossy
Bits/(Pixel*Frame)               : 0.250
Stream size                      : 212293
Stream size                      : 207 KiB (86%)
Stream size                      : 207 KiB
Stream size                      : 207 KiB
Stream size                      : 207 KiB
Stream size                      : 207.3 KiB
Stream size                      : 207 KiB (86%)
Proportion of this stream        : 0.86297
Language                         : en
Language                         : English
Language                         : English
Language                         : en
Language                         : eng
Language                         : en
Encoded date                     : UTC 2005-10-28 17:46:46
Tagged date                      : UTC 2005-10-28 17:46:46

Audio
Count                            : 171
Count of stream of this kind     : 1
Kind of stream                   : Audio
Kind of stream                   : Audio
Stream identifier                : 0
ID                               : 1
ID                               : 1
Format                           : AAC
Format/Info                      : Advanced Audio Codec
Commercial name                  : AAC
Format profile                   : LC
Codec ID                         : 40
Codec                            : AAC LC
Codec                            : AAC LC
Codec/Family                     : AAC
Codec/CC                         : 40
Duration                         : 4967
Duration                         : 4s 967ms
Duration                         : 4s 967ms
Duration                         : 4s 967ms
Duration                         : 00:00:04.967
Bit rate mode                    : CBR
Bit rate mode                    : Constant
Bit rate                         : 48000
Bit rate                         : 48.0 Kbps
Channel(s)                       : 2
Channel(s)                       : 2 channels
Channel positions                : Front: L R
Channel positions                : 2/0/0
Sampling rate                    : 32000
Sampling rate                    : 32.0 KHz
Samples count                    : 158944
Compression mode                 : Lossy
Compression mode                 : Lossy
Stream size                      : 30203
Stream size                      : 29.5 KiB (12%)
Stream size                      : 29 KiB
Stream size                      : 29 KiB
Stream size                      : 29.5 KiB
Stream size                      : 29.50 KiB
Stream size                      : 29.5 KiB (12%)
Proportion of this stream        : 0.12278
Language                         : en
Language                         : English
Language                         : English
Language                         : en
Language                         : eng
Language                         : en
Encoded date                     : UTC 2005-10-28 17:46:46
Tagged date                      : UTC 2005-10-28 17:46:46
Material_Duration                : 4992
Material_StreamSize              : 30376

